<svg viewBox="0 0 1094.6 289.7" xmlns="http://www.w3.org/2000/svg"><g fill="#010101"><path d="m373.85 108.12c-3-23.43-20.87-28.03-33.48-28.03h-16.69s-15.05 0-15.05 0v94.55h15.06v-31.53c16.29.39 24.72-.27 30.76-2.13 18.51-6.32 20.33-25.6 19.4-32.87zm-15.33 6.39c-.67 9.53-8.32 14.21-16.6 14.66-4.75.26-16.23.05-18.23 0v-35.07c7.53-.05 19.12-.39 22.87.77 10.39 2.87 12.64 10.15 11.96 19.64z"/><path d="m847.67 80.09v94.55h-15.06l-48.04-69.72h-.66v69.72h-15.07v-94.55h15.07l47.83 69.75h.87v-69.75z"/><path d="m497.25 93.82v26.55h31.13v13.72h-31.13v26.83h38.38v13.72h-53.45v-94.55h53.45v13.73z"/><path d="m462.77 174.65-22.55-34.63c17.48-6.61 19.18-24.75 18.27-31.9-2.97-23.43-20.64-28.03-33.12-28.03h-16.51s-14.96 0-14.96 0v94.55h15.06v-32.26c7.01.17 12.58.15 17.11-.07l20.67 32.33h16.02zm-53.8-45.47v-35.08c7.45-.05 18.84-.38 22.53.77 10.28 2.87 12.5 10.15 11.83 19.64-.66 9.53-8.23 14.21-16.42 14.66-4.63.26-15.72.05-17.94 0z"/><path d="m635.37 156.24c-8.51 12.55-21.78 19.94-38.18 19.6-26.61 0-48.6-20.94-48.19-48.56-.01-27.81 21.58-48.19 48.19-48.56 15.98-.22 29.52 6.58 38 19.55l-10.87 7.67c-5.76-7.74-14.92-12.7-26.44-12.7-18.36 0-33.24 13.6-33.24 34.22-.28 19.47 14.88 34.22 33.24 34.22 11.16.24 20.57-4.98 26.5-13.1z"/><path d="m732.42 127.4c0 18.92-14.78 34.25-33.01 34.25s-33.01-13.77-33.01-34.25 14.78-34.25 33.01-34.25 33.01 15.34 33.01 34.25zm-33.01-48.71c-26.62 0-48.2 19.89-48.2 48.64s21.58 48.64 48.2 48.64 48.2-21.78 48.2-48.64-20.93-48.64-48.2-48.64z"/><path d="m1047.48 127.4c0 18.92-14.78 34.25-33.01 34.25s-33.01-13.77-33.01-34.25 14.78-34.25 33.01-34.25 33.01 15.34 33.01 34.25zm-33.01-48.71c-26.62 0-48.2 19.89-48.2 48.64s21.58 48.64 48.2 48.64 48.2-21.78 48.2-48.64-20.93-48.64-48.2-48.64z"/><path d="m938.23 98.03c-11.61-15.77-27.51-17.87-36.06-17.94-8.55-.06-17.35 0-17.35 0h-15.06v94.55h15.06s5.06.12 12.28 0c12.63-.21 23.55-1.45 35.04-11.22 19.32-16.42 18-50.02 6.09-65.39zm-17.87 56.23c-9.66 7-17.65 6.53-35.54 6.09v-66.01h14.77c7.18 0 20.39.72 28.14 15.18 7.76 14.46 3.85 36.62-7.37 44.74z"/></g><path d="m785.01 209.28c2.14-.79 3.21-2.39 3.21-4.82 0-1.94-.59-3.45-1.78-4.53s-2.88-1.61-5.06-1.61h-7.73v24.29h7.85c2.63 0 4.65-.61 6.06-1.82 1.4-1.21 2.1-2.97 2.1-5.26 0-1.43-.39-2.69-1.16-3.78s-1.94-1.91-3.5-2.46zm-8.58-8.54h4.95c2.85 0 4.27 1.26 4.27 3.78 0 1.27-.35 2.21-1.04 2.81-.7.6-1.77.9-3.23.9h-4.95v-7.5zm5.24 19.4h-5.24v-9.44h5.24c1.78 0 3.13.44 4.05 1.32s1.38 2.03 1.38 3.44c0 3.12-1.81 4.68-5.43 4.68z" fill="#0590d1"/><path d="m866.03 198.31h2.91v24.29h-2.91z" fill="#010101"/><path d="m885.43 209.03-2.28-.87c-1.22-.44-2.11-.95-2.67-1.54s-.84-1.38-.84-2.38c0-1.11.42-2.01 1.25-2.69.84-.68 1.91-1.02 3.21-1.02s2.31.31 3.2.94c.89.62 1.54 1.43 1.94 2.43l2.25-.9c-.58-1.39-1.52-2.56-2.83-3.5-1.31-.95-2.85-1.42-4.63-1.42-1.95 0-3.6.59-4.96 1.77s-2.04 2.65-2.04 4.41c0 1.64.47 2.96 1.4 3.96s2.29 1.83 4.06 2.5l2.38.87c1.48.55 2.58 1.16 3.31 1.8.73.65 1.09 1.58 1.09 2.81 0 1.3-.51 2.31-1.53 3.05s-2.23 1.11-3.65 1.11-2.69-.39-3.76-1.18-1.82-1.8-2.25-3.05l-2.18 1.04c.56 1.69 1.58 3.06 3.07 4.11s3.2 1.58 5.12 1.58c2.03 0 3.84-.61 5.41-1.82s2.36-2.83 2.36-4.84c0-1.78-.55-3.23-1.64-4.34s-2.7-2.05-4.82-2.81z" fill="#010101"/><path d="m945.61 210.54c1.03-1.31 1.54-2.88 1.54-4.74 0-2.2-.72-4-2.15-5.4-1.44-1.4-3.32-2.1-5.65-2.1h-8.2v24.29h2.63v-9.3h4.95l6.2 9.3h2.96l-6.46-9.51c1.76-.39 3.15-1.24 4.18-2.55zm-11.83.23v-9.96h5.3c1.67 0 2.99.45 3.97 1.34.97.89 1.46 2.11 1.46 3.66s-.49 2.76-1.46 3.64-2.3 1.32-3.97 1.32z" fill="#010101"/><path d="m857.14 210.54c1.03-1.31 1.54-2.88 1.54-4.74 0-2.2-.72-4-2.15-5.4-1.44-1.4-3.32-2.1-5.65-2.1h-8.2v24.29h2.63v-9.3h4.95l6.2 9.3h2.96l-6.46-9.51c1.76-.39 3.15-1.24 4.18-2.55zm-11.83.23v-9.96h5.3c1.67 0 2.99.45 3.97 1.34.97.89 1.46 2.11 1.46 3.66s-.49 2.76-1.46 3.64-2.3 1.32-3.97 1.32z" fill="#010101"/><path d="m958.11 211.74h8.6v-2.53h-8.6v-8.4h10.29v-2.5h-12.99v24.29h13.31v-2.53h-10.61z" fill="#010101"/><path d="m901.81 211.74h8.6v-2.53h-8.6v-8.4h10.29v-2.5h-12.98v24.29h13.3v-2.53h-10.61z" fill="#010101"/><path d="m1006.03 198.33h-2.95v24.39h2.95 10.56v-2.65h-10.56z" fill="#010101"/><path d="m1058.97 198.31-6.81 11.1-6.72-11.1h-3.54l8.81 13.72v10.57h2.9v-10.57l8.75-13.72z" fill="#010101"/><path d="m803.4 209.41-6.72-11.1h-3.54l8.81 13.72v10.57h2.9v-10.57l8.75-13.72h-3.39z" fill="#0590d1"/><path d="m1020.52 201.05h6.38v21.55h2.9v-21.55h6.35v-2.74h-15.63z" fill="#010101"/><path d="m983.94 198.33-9.7 24.39h3.26l2.23-5.87h11.36l2.29 5.87h3.23l-9.6-24.39h-3.06zm-3.23 15.93 4.62-12.18 4.75 12.18z" fill="#010101"/><path d="m31.92 34.65h220.34v220.4h-220.34zm186.34 186.4v-152.4h-152.34v152.4z" fill="#0093ca"/><path d="m92.37 92.51h36.77v106.24h-36.77z" fill="#0093ca"/><path d="m153.84 92.51h36.77v65.52h-36.77z" fill="#0093ca"/><path d="m834.31 208.66v13.94h-2.91v-17.75z"/><path d="m834.31 198.31v7.61l-2.91-3.66v-3.95z"/></svg>